HIERARCHY
ROOT Hips
{
	OFFSET 0.000000 0.000000 0.000000
	CHANNELS 6 Xposition Yposition Zposition Zrotation Yrotation Xrotation 
	JOINT LHipJoint
	{
		OFFSET 0.000000 0.000000 0.000000
		CHANNELS 3 Zrotation Yrotation Xrotation
		JOINT LeftUpLeg
		{
			OFFSET 1.363060 -1.794630 0.839290
			CHANNELS 3 Zrotation Yrotation Xrotation
			JOINT LeftLeg
			{
				OFFSET 2.448110 -6.726130 0.000000
				CHANNELS 3 Zrotation Yrotation Xrotation
				JOINT LeftFoot
				{
					OFFSET 2.562200 -7.039590 0.000000
					CHANNELS 3 Zrotation Yrotation Xrotation
					JOINT LeftToeBase
					{
						OFFSET 0.157640 -0.433110 2.322550
						CHANNELS 3 Zrotation Yrotation Xrotation
						End Site
						{
							OFFSET 0.000000 0.000000 0.000000
						}
					}
				}
			}
		}
	}
	JOINT RHipJoint
	{
		OFFSET 0.000000 0.000000 0.000000
		CHANNELS 3 Zrotation Yrotation Xrotation
		JOINT RightUpLeg
		{
			OFFSET -1.305520 -1.794630 0.839290
			CHANNELS 3 Zrotation Yrotation Xrotation
			JOINT RightLeg
			{
				OFFSET -2.542530 -6.985550 0.000000
				CHANNELS 3 Zrotation Yrotation Xrotation
				JOINT RightFoot
				{
					OFFSET -2.568260 -7.056230 0.000000
					CHANNELS 3 Zrotation Yrotation Xrotation
					JOINT RightToeBase
					{
						OFFSET -0.164730 -0.452590 2.363150
						CHANNELS 3 Zrotation Yrotation Xrotation
						End Site
						{
							OFFSET 0.000000 0.000000 0.000000
						}
					}
				}
			}
		}
	}
	JOINT LowerBack
	{
		OFFSET 0.000000 0.000000 0.000000
		CHANNELS 3 Zrotation Yrotation Xrotation
		JOINT Spine
		{
			OFFSET 0.028270 2.035590 -0.193380
			CHANNELS 3 Zrotation Yrotation Xrotation
			JOINT Spine1
			{
				OFFSET 0.056720 2.048850 -0.042750
				CHANNELS 3 Zrotation Yrotation Xrotation
				JOINT Neck
				{
					OFFSET 0.000000 0.000000 0.000000
					CHANNELS 3 Zrotation Yrotation Xrotation
					JOINT Neck1
					{
						OFFSET -0.054170 1.746240 0.172020
						CHANNELS 3 Zrotation Yrotation Xrotation
						JOINT Head
						{
							OFFSET 0.104070 1.761360 -0.123970
							CHANNELS 3 Zrotation Yrotation Xrotation
							End Site
							{
								OFFSET 0.000000 0.000000 0.000000
							}
						}
					}
				}
				JOINT LeftShoulder
				{
					OFFSET 0.000000 0.000000 0.000000
					CHANNELS 3 Zrotation Yrotation Xrotation
					JOINT LeftArm
					{
						OFFSET 3.362410 1.200890 -0.311210
						CHANNELS 3 Zrotation Yrotation Xrotation
						JOINT LeftForeArm
						{
							OFFSET 4.983000 -0.000000 -0.000000
							CHANNELS 3 Zrotation Yrotation Xrotation
							JOINT LeftHand
							{
								OFFSET 3.483560 -0.000000 -0.000000
								CHANNELS 3 Zrotation Yrotation Xrotation
								JOINT LeftFingerBase
								{
									OFFSET 0.000000 0.000000 0.000000
									CHANNELS 3 Zrotation Yrotation Xrotation
									JOINT LeftHandIndex1
									{
										OFFSET 0.715260 -0.000000 -0.000000
										CHANNELS 3 Zrotation Yrotation Xrotation
										End Site
										{
											OFFSET 0.000000 0.000000 0.000000
										}
									}
								}
								JOINT LThumb
								{
									OFFSET 0.000000 0.000000 0.000000
									CHANNELS 3 Zrotation Yrotation Xrotation
									End Site
									{
										OFFSET 0.000000 0.000000 0.000000
									}
								}
							}
						}
					}
				}
				JOINT RightShoulder
				{
					OFFSET 0.000000 0.000000 0.000000
					CHANNELS 3 Zrotation Yrotation Xrotation
					JOINT RightArm
					{
						OFFSET -3.136600 1.374050 -0.404650
						CHANNELS 3 Zrotation Yrotation Xrotation
						JOINT RightForeArm
						{
							OFFSET -5.241900 -0.000000 -0.000000
							CHANNELS 3 Zrotation Yrotation Xrotation
							JOINT RightHand
							{
								OFFSET -3.444170 -0.000000 -0.000000
								CHANNELS 3 Zrotation Yrotation Xrotation
								JOINT RightFingerBase
								{
									OFFSET 0.000000 0.000000 0.000000
									CHANNELS 3 Zrotation Yrotation Xrotation
									JOINT RightHandIndex1
									{
										OFFSET -0.622530 -0.000000 -0.000000
										CHANNELS 3 Zrotation Yrotation Xrotation
										End Site
										{
											OFFSET 0.000000 0.000000 0.000000
										}
									}
								}
								JOINT RThumb
								{
									OFFSET 0.000000 0.000000 0.000000
									CHANNELS 3 Zrotation Yrotation Xrotation
									End Site
									{
										OFFSET 0.000000 0.000000 0.000000
									}
								}
							}
						}
					}
				}
			}
		}
	}
}
MOTION
Frames: 6
Frame Time: 0.008333
-9.836581 18.123538 -1.931252 -158.375880 86.220946 -137.277525 -13.439946 4.592712 2.464198 -3.548821 10.673392 -8.182424 -1.611454 0.303195 4.875901 0.168591 -5.328225 20.425007 -2.361100 0.000000 -57.605301 8.838921 -0.429525 7.431641 -7.998533 19.588145 -43.862709 -1.525775 -2.213443 51.408977 -0.708463 -1.730891 5.927588 -0.494900 -0.000001 -53.778500 6.018607 -5.430479 -10.922435 1.282875 -6.306341 -4.656564 -4.486159 -6.356728 1.719478 8.972253 -15.230099 -9.254583 -2.296329 -0.165410 -0.273646 0.000000 0.000000 0.000000 10.232774 8.213052 -2.716981 -17.830884 -32.557774 -49.842446 -0.525023 -84.581027 -0.231920 18.793652 5.106090 0.738652 -0.158122 0.682108 -0.000000 0.000000 0.000000 0.000000 0.000000 0.000000 0.000000 10.408147 -15.934831 1.802345 61.702899 -27.040433 -18.095842 4.314393 9.510668 0.012905 -13.365285 4.029290 -0.480433 0.208984 -0.009964 -0.000000 0.000000 0.000000 0.000000 0.000000 0.000000 0.000000 
-9.611715 18.234269 -1.906555 -156.543982 86.595247 -135.494223 -13.617174 4.673559 2.273717 -3.124285 11.673772 -7.610536 -1.558067 0.368702 4.632253 0.272686 -5.556816 22.452678 -2.690800 -0.000000 -55.190400 8.575970 -0.594087 7.667587 -7.782648 20.534483 -43.461805 -1.351765 -2.063450 47.766501 -0.582027 -1.205799 6.906660 -0.435700 0.000000 -54.021000 6.134769 -5.689172 -10.934897 1.388560 -6.585946 -4.650407 -4.205716 -6.655266 1.814460 8.702500 -15.732252 -9.327321 -2.105504 -0.148871 -0.288564 0.000000 0.000000 0.000000 11.120395 8.408796 -2.869051 -15.785045 -31.539386 -52.196434 -0.652806 -85.709847 -0.246234 19.729008 5.254236 0.801377 -0.175191 0.686852 -0.000000 0.000000 0.000000 0.000000 0.000000 0.000000 0.000000 9.516757 -16.583993 1.766646 60.806044 -28.098137 -18.803564 4.325069 9.445555 0.012457 -13.710073 3.884149 -0.475433 0.215865 -0.011344 -0.000000 0.000000 0.000000 0.000000 0.000000 0.000000 0.000000 
-9.389703 18.333645 -1.880293 -155.038742 86.981415 -134.034836 -13.733101 4.740909 2.120969 -2.791038 12.288721 -7.040304 -1.480708 0.426697 4.726872 0.383527 -5.137587 23.813393 -2.660000 -0.000000 -52.494100 8.339783 -0.761930 7.860857 -7.529665 21.309574 -43.001682 -1.155714 -1.923360 44.091977 -0.446245 -0.676445 7.803977 -0.362700 0.000000 -54.077900 6.181555 -5.936126 -10.930739 1.479532 -6.846399 -4.638788 -3.917721 -6.937076 1.910438 8.437212 -16.218647 -9.399453 -1.904417 -0.131204 -0.304827 0.000000 0.000000 0.000000 12.090767 8.602775 -3.008416 -14.008743 -30.518305 -54.382582 -0.779920 -86.728134 -0.260216 20.617231 5.294998 0.844789 -0.192071 0.692639 -0.000000 0.000000 0.000000 0.000000 0.000000 0.000000 0.000000 8.601146 -17.208477 1.741644 59.993910 -29.043487 -19.679883 4.343851 9.324752 0.011743 -13.735464 3.751525 -0.460637 0.222235 -0.013962 -0.000000 0.000000 0.000000 0.000000 0.000000 0.000000 0.000000 
-9.170354 18.421027 -1.852640 -153.753866 87.401788 -132.798067 -13.788176 4.797771 2.003582 -2.568691 12.511540 -6.429417 -1.376134 0.479381 5.112145 0.498906 -4.053420 24.574546 -2.237301 0.000000 -49.764300 8.130664 -0.928302 8.009863 -7.232867 21.920111 -42.479757 -0.932769 -1.789364 40.415037 -0.302917 -0.145979 8.588446 -0.277300 -0.000000 -53.991900 6.156751 -6.167675 -10.903225 1.553250 -7.083421 -4.619189 -3.627923 -7.197741 2.009033 8.186003 -16.692680 -9.472775 -1.697092 -0.112725 -0.323001 0.000000 0.000000 0.000000 13.115226 8.833917 -3.137148 -12.439319 -29.560932 -56.404444 -0.902689 -87.628224 -0.273334 21.420405 5.243629 0.867386 -0.207941 0.699358 -0.000000 0.000000 0.000000 0.000000 0.000000 0.000000 0.000000 7.692733 -17.809942 1.722558 59.247706 -29.902722 -20.539814 4.370355 9.213988 0.010764 -13.481931 3.571860 -0.431143 0.228117 -0.016958 -0.000000 0.000000 0.000000 0.000000 0.000000 0.000000 0.000000 
-8.953285 18.495572 -1.823766 -152.472748 87.868794 -131.573360 -13.790070 4.843193 1.911547 -2.463562 12.423937 -5.793081 -1.249273 0.528279 5.805412 0.618659 -2.430547 24.790588 -1.489800 -0.000000 -47.163100 7.946003 -1.091811 8.123192 -6.882200 22.375571 -41.910683 -0.680218 -1.657010 36.778927 -0.153298 0.391187 9.232121 -0.179101 -0.000000 -53.832600 6.067965 -6.381231 -10.855417 1.610387 -7.294758 -4.593725 -3.339110 -7.434669 2.105402 7.937520 -17.133135 -9.535944 -1.485284 -0.093786 -0.339820 0.000000 0.000000 0.000000 14.186756 9.065162 -3.249404 -11.056027 -28.608787 -58.250993 -1.021290 -88.447292 -0.285039 22.108542 5.133862 0.872968 -0.222322 0.706352 -0.000000 0.000000 0.000000 0.000000 0.000000 0.000000 0.000000 6.775627 -18.366491 1.712313 58.594985 -30.691247 -21.552025 4.404686 9.069157 0.009648 -12.964034 3.399750 -0.395353 0.233363 -0.020862 -0.000000 0.000000 0.000000 0.000000 0.000000 0.000000 0.000000 
-8.738263 18.556781 -1.793633 -151.041254 88.396285 -130.215679 -13.738687 4.876810 1.834799 -2.496426 12.088998 -5.124728 -1.106515 0.573961 6.789909 0.746764 -0.407096 24.556247 -0.514100 -0.000000 -44.822100 7.791644 -1.246036 8.201700 -6.477592 22.664686 -41.305508 -0.398899 -1.523326 33.240066 0.003851 0.966586 9.711259 -0.058900 -0.000001 -53.685600 5.909083 -6.576236 -10.780495 1.647832 -7.478930 -4.560728 -3.057449 -7.645969 2.198615 7.697252 -17.537614 -9.587217 -1.273493 -0.074829 -0.354697 0.000000 0.000000 0.000000 15.280597 9.304040 -3.344372 -9.798736 -27.677758 -59.923406 -1.132920 -89.182698 -0.294961 22.667784 4.994383 0.866036 -0.234921 0.713008 -0.000000 0.000000 0.000000 0.000000 0.000000 0.000000 0.000000 5.874508 -18.874192 1.707882 58.027354 -31.437750 -22.636377 4.443557 8.937502 0.008446 -12.256963 3.212617 -0.354164 0.237983 -0.025257 -0.000000 0.000000 0.000000 0.000000 0.000000 0.000000 0.000000 
